<svg width="19" height="18" viewBox="0 0 19 18" fill="none" xmlns="http://www.w3.org/2000/svg">
<path d="M8.92962 0.787109H2.1439C1.94747 0.787109 1.78676 0.947824 1.78676 1.14425V7.92997C1.78676 8.1264 1.94747 8.28711 2.1439 8.28711H8.92962C9.12605 8.28711 9.28676 8.1264 9.28676 7.92997V1.14425C9.28676 0.947824 9.12605 0.787109 8.92962 0.787109ZM17.8582 0.787109H11.0725C10.876 0.787109 10.7153 0.947824 10.7153 1.14425V7.92997C10.7153 8.1264 10.876 8.28711 11.0725 8.28711H17.8582C18.0546 8.28711 18.2153 8.1264 18.2153 7.92997V1.14425C18.2153 0.947824 18.0546 0.787109 17.8582 0.787109ZM17.8582 9.71568H11.0725C10.876 9.71568 10.7153 9.8764 10.7153 10.0728V16.8585C10.7153 17.055 10.876 17.2157 11.0725 17.2157H17.8582C18.0546 17.2157 18.2153 17.055 18.2153 16.8585V10.0728C18.2153 9.8764 18.0546 9.71568 17.8582 9.71568ZM8.03676 13.4657H5.17962V10.6085C5.17962 10.5103 5.09926 10.43 5.00105 10.43H3.92962C3.8314 10.43 3.75105 10.5103 3.75105 10.6085V13.4657H0.893903C0.795689 13.4657 0.715332 13.546 0.715332 13.6443V14.7157C0.715332 14.8139 0.795689 14.8943 0.893903 14.8943H3.75105V17.7514C3.75105 17.8496 3.8314 17.93 3.92962 17.93H5.00105C5.09926 17.93 5.17962 17.8496 5.17962 17.7514V14.8943H8.03676C8.13497 14.8943 8.21533 14.8139 8.21533 14.7157V13.6443C8.21533 13.546 8.13497 13.4657 8.03676 13.4657Z" fill="white"/>
</svg>
