<svg width="18" height="18" viewBox="0 0 18 18" fill="none" xmlns="http://www.w3.org/2000/svg">
<path d="M9.00959 6.62988C8.42561 6.62988 7.87873 6.85645 7.46467 7.27051C7.05256 7.68457 6.82404 8.23145 6.82404 8.81543C6.82404 9.39941 7.05256 9.94629 7.46467 10.3604C7.87873 10.7725 8.42561 11.001 9.00959 11.001C9.59357 11.001 10.1404 10.7725 10.5545 10.3604C10.9666 9.94629 11.1951 9.39941 11.1951 8.81543C11.1951 8.23145 10.9666 7.68457 10.5545 7.27051C10.3523 7.06671 10.1116 6.90513 9.84634 6.79516C9.58113 6.68518 9.2967 6.629 9.00959 6.62988ZM17.0623 11.2295L15.785 10.1377C15.8455 9.7666 15.8768 9.3877 15.8768 9.01074C15.8768 8.63379 15.8455 8.25293 15.785 7.88379L17.0623 6.79199C17.1588 6.70939 17.2279 6.59937 17.2603 6.47656C17.2928 6.35375 17.2871 6.22398 17.244 6.10449L17.2264 6.05371C16.8748 5.07068 16.3481 4.15948 15.6717 3.36426L15.6365 3.32324C15.5544 3.22666 15.4449 3.15724 15.3226 3.12412C15.2002 3.09099 15.0706 3.09573 14.951 3.1377L13.3651 3.70215C12.7791 3.22168 12.1268 2.84277 11.4197 2.5791L11.1131 0.920898C11.09 0.795981 11.0294 0.681059 10.9394 0.591402C10.8494 0.501744 10.7342 0.441595 10.6092 0.418945L10.5565 0.40918C9.54084 0.225586 8.47053 0.225586 7.4549 0.40918L7.40217 0.418945C7.27716 0.441595 7.16201 0.501744 7.072 0.591402C6.98199 0.681059 6.9214 0.795981 6.89826 0.920898L6.58967 2.58691C5.88933 2.85269 5.23692 3.23068 4.65803 3.70605L3.06037 3.1377C2.94077 3.09539 2.81114 3.09049 2.68868 3.12363C2.56623 3.15677 2.45676 3.2264 2.37483 3.32324L2.33967 3.36426C1.66446 4.16033 1.13786 5.0713 0.784983 6.05371L0.767404 6.10449C0.679514 6.34863 0.75178 6.62207 0.949045 6.79199L2.24201 7.89551C2.18147 8.2627 2.15217 8.6377 2.15217 9.00879C2.15217 9.38379 2.18147 9.75879 2.24201 10.1221L0.952951 11.2256C0.856459 11.3082 0.787397 11.4182 0.754951 11.541C0.722505 11.6638 0.728211 11.7936 0.771311 11.9131L0.788889 11.9639C1.1424 12.9463 1.66389 13.8545 2.34358 14.6533L2.37873 14.6943C2.46087 14.7909 2.57034 14.8603 2.69272 14.8935C2.8151 14.9266 2.94464 14.9219 3.06428 14.8799L4.66193 14.3115C5.24397 14.79 5.8924 15.1689 6.59358 15.4307L6.90217 17.0967C6.9253 17.2216 6.9859 17.3365 7.07591 17.4262C7.16591 17.5158 7.28107 17.576 7.40608 17.5986L7.45881 17.6084C8.48443 17.793 9.53476 17.793 10.5604 17.6084L10.6131 17.5986C10.7381 17.576 10.8533 17.5158 10.9433 17.4262C11.0333 17.3365 11.0939 17.2216 11.117 17.0967L11.4237 15.4385C12.1307 15.1729 12.783 14.7959 13.369 14.3154L14.9549 14.8799C15.0745 14.9222 15.2041 14.9271 15.3266 14.8939C15.449 14.8608 15.5585 14.7912 15.6404 14.6943L15.6756 14.6533C16.3553 13.8506 16.8768 12.9463 17.2303 11.9639L17.2479 11.9131C17.3319 11.6709 17.2596 11.3994 17.0623 11.2295ZM9.00959 12.249C7.11311 12.249 5.576 10.7119 5.576 8.81543C5.576 6.91895 7.11311 5.38184 9.00959 5.38184C10.9061 5.38184 12.4432 6.91895 12.4432 8.81543C12.4432 10.7119 10.9061 12.249 9.00959 12.249Z" fill="white"/>
</svg>
